<svg xmlns="http://www.w3.org/2000/svg" viewBox="0 0 16 16" aria-hidden="true"><path fill="currentColor" d="M13.435 2.166C10.36-.722 5.575-.722 2.5 2.166.904 3.679 0 5.784 0 7.986c0 2.202.904 4.306 2.5 5.82 3.083 2.925 7.911 2.925 10.995 0C15.094 12.292 16 10.186 16 7.98c0-2.204-.906-4.311-2.505-5.825l-.06.01zM2.98 3.538c.275.31.52.645.73 1.002l-.73.26.49 1.212.73-.29c.201.549.332 1.121.39 1.703h-.85v1.202h.85c-.053.586-.184 1.162-.39 1.713l-.73-.32-.49 1.181.67.27c-.218.355-.465.69-.74 1.002C.677 9.905.707 6.071 2.98 3.538zm.91 9.807c.383-.426.718-.893 1-1.392l.76.31.47-1.162-.71-.29c.261-.702.423-1.437.48-2.184h.709V7.375h-.76c-.061-.744-.226-1.476-.49-2.174l.72-.29-.47-1.162-.77.31c-.282-.492-.617-.952-.999-1.372C6.252.79 9.653.79 12.076 2.687c-.383.422-.719.886-1 1.382l-.74-.3-.44 1.142.69.28c-.262.701-.42 1.437-.47 2.184h-.71v1.252h.71c.061.747.226 1.482.49 2.184l-.71.29.47 1.162.77-.32c.282.495.618.959 1 1.382-2.436 1.925-5.871 1.925-8.307 0l.06.02zm9.206-.882c-.275-.309-.52-.644-.73-1.001l.65-.27-.52-1.173-.73.29c-.204-.551-.338-1.127-.399-1.712h.84V7.375h-.84c.05-.586.177-1.162.38-1.713l.75.3.48-1.162-.69-.28c.21-.357.454-.692.73-1.002 2.267 2.55 2.267 6.397 0 8.945h.08z"></path></svg>