<svg xmlns="http://www.w3.org/2000/svg" viewBox="0 0 16 16" aria-hidden="true" ><path fill="currentColor" d="M9.807.217C5.7-.743 1.555 1.65.333 5.687c-.634 2.114-.368 4.396.736 6.308s2.947 3.284 5.095 3.791c3.104.732 6.344-.45 8.248-3.007 1.903-2.557 2.107-6.002.518-8.77C13.82 2.092 11.965.719 9.807.218zM8.233 7.171L5.175 1.874c1.164-.53 2.454-.722 3.722-.553-.359 1.723-.135 3.517.635 5.1l-1.299.75zm-1.073.62l-1.317.76c-.99-1.448-2.426-2.53-4.09-3.083.48-1.197 1.295-2.23 2.349-2.974L7.16 7.791zm-2.4 1.385L1.878 10.84c-.597-1.315-.75-2.788-.438-4.198 1.35.468 2.514 1.355 3.322 2.533zm.626 1.084c.614 1.289.8 2.74.533 4.142-1.376-.436-2.574-1.305-3.417-2.477l2.884-1.665zm1.083-.625l1.316-.76 3.058 5.296c-1.172.536-2.472.726-3.749.547.353-1.717.134-3.503-.625-5.083zm2.39-1.38l1.325-.765c.99 1.435 2.42 2.508 4.074 3.057-.473 1.214-1.294 2.263-2.358 3.014L8.859 8.255zm1.226-6.638c1.377.45 2.571 1.334 3.405 2.519l-2.858 1.65c-.62-1.297-.812-2.757-.547-4.169zm4.504 7.802c-1.358-.44-2.538-1.307-3.367-2.471l2.884-1.665c.595 1.265.777 2.685.519 4.058l-.036.078z"></path></svg>