<svg xmlns="http://www.w3.org/2000/svg" viewBox="0 0 16 16" aria-hidden="true"><path fill="currentColor" d="M14.843.318L13.687.14C13.081.05 12.47.002 11.857 0c-3.462.01-6.748 1.528-9 4.157-2.25 2.63-3.244 6.11-2.72 9.533l.178 1.156c.067.43.405.77.836.836l1.156.178c.606.091 1.218.138 1.83.14 3.462-.01 6.748-1.528 9-4.157 2.25-2.63 3.244-6.11 2.72-9.533l-.178-1.156c-.067-.43-.405-.77-.836-.836zM12.187 11c-2.002 2.34-4.92 3.697-8 3.72-.552.001-1.104-.042-1.65-.13l-1-.14-.14-1c-.455-3.05.436-6.148 2.444-8.49 2.007-2.34 4.932-3.695 8.016-3.71.553-.001 1.105.042 1.65.13l1 .14.14 1c.451 3.05-.447 6.145-2.46 8.48zm.27-6.48l-1.24 1.27 1.15 1.15-.89.88-1.15-1.15L8.997 8l1.15 1.15-.88.85-1.14-1.12-1.33 1.33 1.2 1.15-.89.88-1.19-1.15-1.24 1.24-.89-.88 1.21-1.24-1.12-1.15.89-.88 1.15 1.15L7.237 8l-1.15-1.15.91-.85 1.13 1.12 1.32-1.33-1.15-1.15.89-.88 1.14 1.15 1.24-1.24.89.85z"></path></svg>